<svg height="512" width="512" xmlns="http://www.w3.org/2000/svg"><path d="M487.976 450.258H452.19V257.294c0-4.143-3.358-7.5-7.5-7.5s-7.5 3.357-7.5 7.5v192.964H327.045V198.616a3.51 3.51 0 013.506-3.507h103.132a3.51 3.51 0 013.506 3.507v23.618c0 4.143 3.358 7.5 7.5 7.5s7.5-3.357 7.5-7.5v-23.618c0-10.205-8.302-18.507-18.506-18.507h-44.066v-55.601l89.062-43.303c4.887-2.377 7.922-7.229 7.922-12.662s-3.036-10.284-7.922-12.661l-83.828-40.759a13.995 13.995 0 00-13.624.728 14 14 0 00-6.61 11.935V180.11h-44.066c-10.205 0-18.506 8.302-18.506 18.507v80.617H205.406c-10.204 0-18.506 8.302-18.506 18.506v66.333H80.261c-10.205 0-18.506 8.302-18.506 18.507v67.679h-37.73C10.777 450.258 0 461.035 0 474.282s10.777 24.023 24.024 24.023h463.951c13.247 0 24.024-10.776 24.024-24.023s-10.776-24.024-24.023-24.024zM389.618 29.257l80.798 39.286-80.798 39.286V68.543zM76.755 382.579a3.51 3.51 0 013.506-3.507H186.9v19.872c0 4.143 3.358 7.5 7.5 7.5s7.5-3.357 7.5-7.5V297.739a3.51 3.51 0 013.506-3.506h106.639v156.024H201.9v-16.249c0-4.143-3.358-7.5-7.5-7.5s-7.5 3.357-7.5 7.5v16.249H76.755zm411.221 100.727H24.024c-4.976 0-9.024-4.048-9.024-9.023s4.048-9.024 9.024-9.024h463.951c4.976 0 9.024 4.049 9.024 9.024s-4.047 9.023-9.023 9.023z"/></svg>