<svg width="100" height="80" xmlns="http://www.w3.org/2000/svg"><path d="M78.676.809c12.078 3.183 20.72 14.15 20.72 26.279 0 6.721-3.386 15.211-9.097 22.944-3.183 4.245-11.42 13.442-14.453 16.12a738.57 738.57 0 00-8.692 8.087c-5.408 5.053-6.823 6.165-7.328 5.61-.506-.506-.455-.557.1-.253.506.303.607.202.354-.202a1.032 1.032 0 00-1.162-.354c-.404.151-.556.1-.404-.202.151-.253-.202-.708-.758-1.011-.556-.303-.86-.809-.708-1.112.202-.303.152-.404-.151-.253-.657.405-2.325-1.364-1.82-1.92.253-.202.152-.253-.151-.101-.556.354-4.448-3.336-3.993-3.74.152-.151-.202-.252-.808-.202-.556.05-2.426 1.415-4.144 3.083-1.668 1.617-2.88 2.628-2.628 2.223.404-.657.303-.657-.405-.05-.454.354-.707.859-.555 1.112.151.252 0 .404-.405.353-.354-.1-.606.152-.556.455.101.354-.303.657-.91.657-.757 0-.96.253-.757.809.151.404.1.606-.203.455-.96-.607-.555-2.274.506-2.274.657 0 1.01-.354 1.01-1.011 0-1.213-1.92-1.415-2.324-.253-.152.404-.809.708-1.466.657-.707-.05-1.061-.354-.91-.758.203-.455 0-.556-.656-.303-.657.253-.809.151-.556-.506.202-.505 0-1.111-.455-1.465-.404-.354-1.162-1.01-1.567-1.516-.455-.455-1.112-.708-1.465-.556-.455.151-.556-.101-.354-.809.202-.758.05-1.061-.556-1.061-.455 0-.809.202-.809.455s-.404.404-.91.303c-.454-.05-.808-.455-.707-.91.05-.454-.404-1.06-1.01-1.415-1.112-.606-1.112-.556-.405.354.708.91.708.91-.151.253-.455-.354-.86-1.01-.86-1.415s-.202-.607-.404-.455c-.252.152-.455-.05-.455-.455 0-1.112.506-.96 2.224.758 1.01 1.01 1.718 1.365 1.92 1.01.354-.606 0-1.212-.808-1.313-.253-.05-.657-.101-.91-.152-.253 0-.354-.505-.202-1.01.303-1.264-1.718-2.527-2.173-1.365-.354.96-1.617 1.415-2.022.708-.202-.354-.151-.405.203-.203.353.203.606.152.606-.151 0-.253-.253-.657-.505-.809-.304-.151-.506-.556-.506-.859 0-.354.253-.354.708.05.556.455.758.405 1.01-.201.152-.455.102-.708-.151-.556-.202.151-.303-.304-.152-.96.101-.708 0-1.264-.303-1.264-.808 0-1.718 1.415-1.82 2.78-.05 1.162-.1 1.212-.707.404-.303-.455-.606-1.061-.606-1.314 0-.202-.303-.253-.657-.05-.404.303-.404.15.05-.456.506-.606.556-1.01.101-1.718-.505-.808-.505-.808-.252.152.404 1.566-.96 1.314-2.628-.455-.809-.86-1.112-1.365-.809-1.162.354.202.657.1.657-.152a.56.56 0 00-.556-.556c-.657 0-3.891-2.931-4.599-4.245-.404-.707-.353-.86.152-.556.404.253.505.202.253-.151-.202-.354-.708-.607-1.112-.607-.404 0-.708-.303-.708-.657 0-.354-.707-1.314-1.516-2.122-.91-.91-1.415-1.77-1.263-2.224.151-.455.151-.607-.05-.404-.607.556-1.668-.657-1.365-1.516.202-.506.1-.708-.202-.506-.506.303-2.83-3.84-2.83-5.054 0-.353-.203-.657-.455-.657-.202 0-.354-.151-.303-.404.05-.202-.152-.808-.455-1.415-.354-.556-.657-1.617-.758-2.375-.101-.708-.354-1.466-.556-1.668C1 32.85.849 30.221.849 27.24c0-5.912.96-9.551 3.69-14.2 3.234-5.56 10.36-10.664 17.08-12.28 4.448-1.012 8.087-.961 12.989.302l4.144 1.011 4.144-1.01C48.05-.254 51.639-.254 56.54.96c11.32 2.88 19.456 12.483 20.467 24.005.86 10.31-6.014 23.45-19.406 37.145-1.466 1.465-2.678 2.83-2.678 3.032 0 .607 4.8 5.104 5.458 5.104 1.314 0 17.435-16.07 22.034-21.983 3.689-4.75 6.317-8.996 7.934-12.887.96-2.274 1.162-3.74 1.162-8.086.05-4.75-.1-5.61-1.314-8.238-2.628-5.61-8.743-10.31-14.554-11.219-1.77-.303-2.931-.96-5.054-2.88-1.516-1.415-3.234-2.78-3.891-3.083C64.98 1.112 65.284.657 67.86.303 71.551-.202 75.644 0 78.676.81zM41.127 9.5c-3.74 1.87-7.277 5.407-9.299 9.45-1.92 3.69-2.223 10.36-.657 14.909 1.971 5.862 5.862 11.876 13.19 20.265l2.931 3.336-2.425 2.375-2.426 2.375-3.083-3.386c-1.718-1.87-2.931-3.639-2.78-3.891.152-.304.051-.354-.252-.152-.708.455-7.025-8.136-9.552-13.089-2.88-5.61-3.84-9.198-3.84-14.656.05-6.62 1.97-12.129 5.912-16.88 1.011-1.212 1.82-2.273 1.82-2.425 0-.151-2.022-.202-4.498-.05-3.79.252-4.902.505-7.58 1.92-3.538 1.92-7.48 5.913-9.047 9.198-2.425 5.256-2.425 11.522.05 17.283.557 1.314 1.012 2.73 1.012 3.134 0 .353.202.556.404.455.152-.152.657.505 1.01 1.415.354.859.86 1.768 1.113 1.92.202.152.454.606.555 1.01.05.405.96 1.668 2.022 2.83 1.061 1.163 1.87 2.224 1.82 2.427 0 .151.454.758 1.111 1.263.657.556 1.01.96.809 1.01-.203 0 1.06 1.365 2.78 3.083 1.717 1.719 2.779 2.932 2.374 2.679-.454-.202-.606-.152-.353.101.252.253.707.455 1.01.455.354.05.556.354.455.758-.1.404 0 .606.202.354.202-.203 1.719.91 3.336 2.526 2.88 2.881 3.436 3.69 2.375 3.69-.253 0-.354-.304-.152-.657.203-.304.152-.405-.05-.202-.253.202-.505.707-.556 1.111-.101.556.152.607.707.354.506-.253 1.062-.404 1.365-.354.758.05 3.538 2.83 3.386 3.386-.05.253.101.354.354.202.252-.151.758.102 1.112.556.606.708.606.809 0 .455-.455-.303-.607-.252-.506.152.152.354.404.606.607.606.202-.05 1.06-.05 1.92-.05.809 0 1.415-.202 1.263-.455-.151-.253.051-.556.455-.758.405-.152.758-.556.758-.91 0-.404.405-1.061.86-1.465.505-.455 1.414-1.415 2.071-2.173.607-.759 1.416-1.213 1.719-1.011.353.202.404.151.202-.253-.253-.354 1.617-2.628 4.8-6.014C61.14 48.111 67.508 38.51 69.075 31.89c1.87-7.934-1.264-16.223-7.833-20.77-5.812-3.993-13.949-4.65-20.114-1.618z" fill="#FFF" fill-rule="nonzero"/></svg>