<?xml version="1.0" encoding="UTF-8"?>
<svg width="344px" height="159px" viewBox="0 0 344 159" version="1.1" xmlns="http://www.w3.org/2000/svg" xmlns:xlink="http://www.w3.org/1999/xlink">
    <!-- Generator: Sketch 59 (86127) - https://sketch.com -->
    <title>logo (1)</title>
    <desc>Created with Sketch.</desc>
    <defs>
        <linearGradient x1="50%" y1="0%" x2="50%" y2="100%" id="linearGradient-1">
            <stop stop-color="#FF6600" offset="0%"></stop>
            <stop stop-color="#FF0054" offset="75.5991343%"></stop>
            <stop stop-color="#FF0061" offset="100%"></stop>
        </linearGradient>
        <linearGradient x1="50%" y1="0%" x2="50%" y2="100%" id="linearGradient-2">
            <stop stop-color="#FF6300" offset="0%"></stop>
            <stop stop-color="#FF0050" offset="69.214527%"></stop>
            <stop stop-color="#FF0062" offset="100%"></stop>
        </linearGradient>
        <linearGradient x1="50%" y1="0%" x2="50%" y2="100%" id="linearGradient-3">
            <stop stop-color="#FF6D00" offset="0%"></stop>
            <stop stop-color="#FF005B" offset="70.6054688%"></stop>
            <stop stop-color="#FF0061" offset="100%"></stop>
        </linearGradient>
        <linearGradient x1="50%" y1="0%" x2="50%" y2="100%" id="linearGradient-4">
            <stop stop-color="#FF6600" offset="0%"></stop>
            <stop stop-color="#FF0062" offset="69.2963471%"></stop>
            <stop stop-color="#FF0060" offset="100%"></stop>
        </linearGradient>
    </defs>
    <g id="Page-1" stroke="none" stroke-width="1" fill="none" fill-rule="evenodd">
        <g id="Desktop-HD" transform="translate(-931.000000, -71.000000)" fill-rule="nonzero">
            <g id="logo-(1)" transform="translate(931.000000, 70.000000)">
                <g id="Group" transform="translate(172.000000, 79.800000) scale(-1, 1) rotate(-180.000000) translate(-172.000000, -79.800000) translate(0.000000, 0.300000)">
                    <path d="M106,156.7 C82.1,150.4 65,128.7 65,104.7 C65,91.4 71.7,74.6 83,59.3 C89.3,50.9 105.6,32.7 111.6,27.4 C113.7,25.5 121.5,18.3 128.8,11.4 C139.5,1.4 142.3,-0.8 143.3,0.3 C144.3,1.3 144.2,1.4 143.1,0.8 C142.1,0.2 141.9,0.4 142.4,1.2 C142.9,1.9 143.9,2.2 144.7,1.9 C145.5,1.6 145.8,1.7 145.5,2.3 C145.2,2.8 145.9,3.7 147,4.3 C148.1,4.9 148.7,5.9 148.4,6.5 C148,7.1 148.1,7.3 148.7,7 C150,6.2 153.3,9.7 152.3,10.8 C151.8,11.2 152,11.3 152.6,11 C153.7,10.3 161.4,17.6 160.5,18.4 C160.2,18.7 160.9,18.9 162.1,18.8 C163.2,18.7 166.9,16 170.3,12.7 C173.6,9.5 176,7.5 175.5,8.3 C174.7,9.6 174.9,9.6 176.3,8.4 C177.2,7.7 177.7,6.7 177.4,6.2 C177.1,5.7 177.4,5.4 178.2,5.5 C178.9,5.7 179.4,5.2 179.3,4.6 C179.1,3.9 179.9,3.3 181.1,3.3 C182.6,3.3 183,2.8 182.6,1.7 C182.3,0.9 182.4,0.5 183,0.8 C184.9,2 184.1,5.3 182,5.3 C180.7,5.3 180,6 180,7.3 C180,9.7 183.8,10.1 184.6,7.8 C184.9,7 186.2,6.4 187.5,6.5 C188.9,6.6 189.6,7.2 189.3,8 C188.9,8.9 189.3,9.1 190.6,8.6 C191.9,8.1 192.2,8.3 191.7,9.6 C191.3,10.6 191.7,11.8 192.6,12.5 C193.4,13.2 194.9,14.5 195.7,15.5 C196.6,16.4 197.9,16.9 198.6,16.6 C199.5,16.3 199.7,16.8 199.3,18.2 C198.9,19.7 199.2,20.3 200.4,20.3 C201.3,20.3 202,19.9 202,19.4 C202,18.9 202.8,18.6 203.8,18.8 C204.7,18.9 205.4,19.7 205.2,20.6 C205.1,21.5 206,22.7 207.2,23.4 C209.4,24.6 209.4,24.5 208,22.7 C206.6,20.9 206.6,20.9 208.3,22.2 C209.2,22.9 210,24.2 210,25 C210,25.8 210.4,26.2 210.8,25.9 C211.3,25.6 211.7,26 211.7,26.8 C211.7,29 210.7,28.7 207.3,25.3 C205.3,23.3 203.9,22.6 203.5,23.3 C202.8,24.5 203.5,25.7 205.1,25.9 C205.6,26 206.4,26.1 206.9,26.2 C207.4,26.2 207.6,27.2 207.3,28.2 C206.7,30.7 210.7,33.2 211.6,30.9 C212.3,29 214.8,28.1 215.6,29.5 C216,30.2 215.9,30.3 215.2,29.9 C214.5,29.5 214,29.6 214,30.2 C214,30.7 214.5,31.5 215,31.8 C215.6,32.1 216,32.9 216,33.5 C216,34.2 215.5,34.2 214.6,33.4 C213.5,32.5 213.1,32.6 212.6,33.8 C212.3,34.7 212.4,35.2 212.9,34.9 C213.3,34.6 213.5,35.5 213.2,36.8 C213,38.2 213.2,39.3 213.8,39.3 C215.4,39.3 217.2,36.5 217.4,33.8 C217.5,31.5 217.6,31.4 218.8,33 C219.4,33.9 220,35.1 220,35.6 C220,36 220.6,36.1 221.3,35.7 C222.1,35.1 222.1,35.4 221.2,36.6 C220.2,37.8 220.1,38.6 221,40 C222,41.6 222,41.6 221.5,39.7 C220.7,36.6 223.4,37.1 226.7,40.6 C228.3,42.3 228.9,43.3 228.3,42.9 C227.6,42.5 227,42.7 227,43.2 C227,43.8 227.5,44.3 228.1,44.3 C229.4,44.3 235.8,50.1 237.2,52.7 C238,54.1 237.9,54.4 236.9,53.8 C236.1,53.3 235.9,53.4 236.4,54.1 C236.8,54.8 237.8,55.3 238.6,55.3 C239.4,55.3 240,55.9 240,56.6 C240,57.3 241.4,59.2 243,60.8 C244.8,62.6 245.8,64.3 245.5,65.2 C245.2,66.1 245.2,66.4 245.6,66 C246.8,64.9 248.9,67.3 248.3,69 C247.9,70 248.1,70.4 248.7,70 C249.7,69.4 254.3,77.6 254.3,80 C254.3,80.7 254.7,81.3 255.2,81.3 C255.6,81.3 255.9,81.6 255.8,82.1 C255.7,82.5 256.1,83.7 256.7,84.9 C257.4,86 258,88.1 258.2,89.6 C258.4,91 258.9,92.5 259.3,92.9 C259.7,93.3 260,98.5 260,104.4 C260,116.1 258.1,123.3 252.7,132.5 C246.3,143.5 232.2,153.6 218.9,156.8 C210.1,158.8 202.9,158.7 193.2,156.2 L185,154.2 L176.8,156.2 C166.6,158.8 159.5,158.8 149.8,156.4 C127.4,150.7 111.3,131.7 109.3,108.9 C107.6,88.5 121.2,62.5 147.7,35.4 C150.6,32.5 153,29.8 153,29.4 C153,28.2 143.5,19.3 142.2,19.3 C139.6,19.3 107.7,51.1 98.6,62.8 C91.3,72.2 86.1,80.6 82.9,88.3 C81,92.8 80.6,95.7 80.6,104.3 C80.5,113.7 80.8,115.4 83.2,120.6 C88.4,131.7 100.5,141 112,142.8 C115.5,143.4 117.8,144.7 122,148.5 C125,151.3 128.4,154 129.7,154.6 C133.1,156.1 132.5,157 127.4,157.7 C120.1,158.7 112,158.3 106,156.7 Z M180.3,139.5 C187.7,135.8 194.7,128.8 198.7,120.8 C202.5,113.5 203.1,100.3 200,91.3 C196.1,79.7 188.4,67.8 173.9,51.2 L168.1,44.6 L172.9,39.9 L177.7,35.2 L183.8,41.9 C187.2,45.6 189.6,49.1 189.3,49.6 C189,50.2 189.2,50.3 189.8,49.9 C191.2,49 203.7,66 208.7,75.8 C214.4,86.9 216.3,94 216.3,104.8 C216.2,117.9 212.4,128.8 204.6,138.2 C202.6,140.6 201,142.7 201,143 C201,143.3 205,143.4 209.9,143.1 C217.4,142.6 219.6,142.1 224.9,139.3 C231.9,135.5 239.7,127.6 242.8,121.1 C247.6,110.7 247.6,98.3 242.7,86.9 C241.6,84.3 240.7,81.5 240.7,80.7 C240.7,80 240.3,79.6 239.9,79.8 C239.6,80.1 238.6,78.8 237.9,77 C237.2,75.3 236.2,73.5 235.7,73.2 C235.3,72.9 234.8,72 234.6,71.2 C234.5,70.4 232.7,67.9 230.6,65.6 C228.5,63.3 226.9,61.2 227,60.8 C227,60.5 226.1,59.3 224.8,58.3 C223.5,57.2 222.8,56.4 223.2,56.3 C223.6,56.3 221.1,53.6 217.7,50.2 C214.3,46.8 212.2,44.4 213,44.9 C213.9,45.3 214.2,45.2 213.7,44.7 C213.2,44.2 212.3,43.8 211.7,43.8 C211,43.7 210.6,43.1 210.8,42.3 C211,41.5 210.8,41.1 210.4,41.6 C210,42 207,39.8 203.8,36.6 C198.1,30.9 197,29.3 199.1,29.3 C199.6,29.3 199.8,29.9 199.4,30.6 C199,31.2 199.1,31.4 199.5,31 C200,30.6 200.5,29.6 200.6,28.8 C200.8,27.7 200.3,27.6 199.2,28.1 C198.2,28.6 197.1,28.9 196.5,28.8 C195,28.7 189.5,23.2 189.8,22.1 C189.9,21.6 189.6,21.4 189.1,21.7 C188.6,22 187.6,21.5 186.9,20.6 C185.7,19.2 185.7,19 186.9,19.7 C187.8,20.3 188.1,20.2 187.9,19.4 C187.6,18.7 187.1,18.2 186.7,18.2 C186.3,18.3 184.6,18.3 182.9,18.3 C181.3,18.3 180.1,18.7 180.4,19.2 C180.7,19.7 180.3,20.3 179.5,20.7 C178.7,21 178,21.8 178,22.5 C178,23.3 177.2,24.6 176.3,25.4 C175.3,26.3 173.5,28.2 172.2,29.7 C171,31.2 169.4,32.1 168.8,31.7 C168.1,31.3 168,31.4 168.4,32.2 C168.9,32.9 165.2,37.4 158.9,44.1 C140.7,63.1 128.1,82.1 125,95.2 C121.3,110.9 127.5,127.3 140.5,136.3 C152,144.2 168.1,145.5 180.3,139.5 Z" id="Shape" fill="url(#linearGradient-1)"></path>
                    <path d="M304.8,117.1 C302.6,115.3 279.8,62.5 280.2,59.9 C280.6,56.9 284.5,56.6 286.3,59.5 C287.2,60.8 292.9,73.7 299.1,88.2 C307.5,108 310.1,114.9 309.3,116.1 C308,118.3 306.7,118.5 304.8,117.1 Z" id="Path" fill="url(#linearGradient-2)"></path>
                    <path d="M9.7,88.8 C3.5,84 0,80.5 0,79.3 C0,78.1 3.6,74.8 10.2,69.8 C20.8,61.9 24.2,60.8 24.8,65 C25.1,66.8 23.5,68.4 17.1,73 C12.7,76.2 9.1,79 9.1,79.3 C9.1,79.6 12.6,82.5 16.8,85.8 C25,92.3 26.7,95.5 22,96.1 C20.1,96.3 17,94.5 9.7,88.8 Z" id="Path" fill="url(#linearGradient-3)"></path>
                    <path d="M318.7,95.6 C317,94 318.5,91.9 325.8,86.2 C330,82.8 333.6,79.8 333.7,79.4 C333.8,79.1 330.3,76.2 325.9,72.9 C319.7,68.4 318,66.6 318.2,64.9 C318.8,60.8 322.4,61.9 332.2,69.1 C342.6,76.9 344.5,78.7 343.5,80.3 C343.1,80.9 338.6,84.8 333.5,88.9 C324.8,95.7 320.7,97.6 318.7,95.6 Z" id="Path" fill="url(#linearGradient-4)"></path>
                </g>
            </g>
        </g>
    </g>
</svg>